<svg viewBox="0 0 34 35" fill="none" xmlns="http://www.w3.org/2000/svg">
  <path
    d="M17.5657 0.934315C17.2533 0.621895 16.7467 0.621895 16.4343 0.934315L11.3431 6.02548C11.0307 6.3379 11.0307 6.84443 11.3431 7.15685C11.6556 7.46927 12.1621 7.46927 12.4745 7.15685L17 2.63137L21.5255 7.15685C21.8379 7.46927 22.3444 7.46927 22.6569 7.15685C22.9693 6.84443 22.9693 6.3379 22.6569 6.02548L17.5657 0.934315ZM16.4343 34.0657C16.7467 34.3781 17.2533 34.3781 17.5657 34.0657L22.6569 28.9745C22.9693 28.6621 22.9693 28.1556 22.6569 27.8431C22.3444 27.5307 21.8379 27.5307 21.5255 27.8431L17 32.3686L12.4745 27.8431C12.1621 27.5307 11.6556 27.5307 11.3431 27.8431C11.0307 28.1556 11.0307 28.6621 11.3431 28.9745L16.4343 34.0657ZM16.2 1.5V33.5H17.8V1.5H16.2Z"
    fill="#00263A"
  ></path>
  <path
    d="M33.5657 18.0657C33.8781 17.7533 33.8781 17.2467 33.5657 16.9343L28.4745 11.8431C28.1621 11.5307 27.6556 11.5307 27.3431 11.8431C27.0307 12.1556 27.0307 12.6621 27.3431 12.9745L31.8686 17.5L27.3431 22.0255C27.0307 22.3379 27.0307 22.8444 27.3431 23.1569C27.6556 23.4693 28.1621 23.4693 28.4745 23.1569L33.5657 18.0657ZM0.434315 16.9343C0.121895 17.2467 0.121895 17.7533 0.434315 18.0657L5.52548 23.1569C5.8379 23.4693 6.34443 23.4693 6.65685 23.1569C6.96927 22.8444 6.96927 22.3379 6.65685 22.0255L2.13137 17.5L6.65685 12.9745C6.96927 12.6621 6.96927 12.1556 6.65685 11.8431C6.34443 11.5307 5.8379 11.5307 5.52548 11.8431L0.434315 16.9343ZM33 16.7L1 16.7L1 18.3L33 18.3L33 16.7Z"
    fill="#00263A"
  ></path>
</svg>
