<svg viewBox="0 0 44 49" fill="none" xmlns="http://www.w3.org/2000/svg">
  <path
    d="M0 9.5C0 8.94771 0.447715 8.5 1 8.5H39C39.5523 8.5 40 8.94772 40 9.5V32.1073C40 32.3597 39.9045 32.6028 39.7328 32.7878L33.5 39.5L25.296 48.1866C25.1071 48.3866 24.8441 48.5 24.569 48.5H1C0.447716 48.5 0 48.0523 0 47.5V9.5Z"
    fill="#FBFC86"
  />
  <path d="M26 32.5H40L25 48.5V33.5C25 32.9477 25.4477 32.5 26 32.5Z" fill="#e7e872" />
  <circle cx="36" cy="8.5" r="8" fill="#2F80ED" />
  <path
    d="M38.5309 8.816V8.002H36.4079V5.879H35.5939V8.002H33.4709V8.816H35.5939V10.939H36.4079V8.816H38.5309Z"
    fill="white"
  />
</svg>
